<?xml version="1.0" encoding="UTF-8"?>
<svg id="Ebene_1" data-name="Ebene 1" xmlns="http://www.w3.org/2000/svg" xmlns:xlink="http://www.w3.org/1999/xlink" viewBox="0 0 340.16 65.2">
  <defs>
    <clipPath id="clippath">
      <rect width="340.16" height="65.2" style="fill: none; stroke-width: 0px;"/>
    </clipPath>
  </defs>
  <polygon points="101.21 17.23 93.59 39.26 86.03 17.23 78.78 17.23 88.96 48.49 98.27 48.49 108.46 17.23 101.21 17.23 101.21 17.23" style="fill: #3eadb6; stroke-width: 0px;"/>
  <path d="M128.55,10.78c2.51,0,4.64-1.95,4.64-4.64s-2.13-4.64-4.64-4.64-4.64,2.07-4.64,4.64,2.07,4.64,4.64,4.64h0Z" style="fill: #3eadb6; stroke-width: 0px;"/>
  <path d="M153.77,4.63h-7.34v12.55h-7.47v6.96h7.47v10.85c0,3.58,0,14.49,11.6,14.49,4.89,0,9.47-1.94,12.04-3.58l-2.51-6.08c-3.14,2.2-6.46,2.95-8.53,2.95-5.21,0-5.21-4.89-5.21-7.28v-11.35h16.5v-6.96h-16.56V4.63h0Z" style="fill: #3eadb6; stroke-width: 0px;"/>
  <path d="M183.26,17.18h-7.4v31.37h7.4v-18c2.01-1.76,7.78-6.02,17.25-6.4v-6.96c-10.54.44-17.19,5.9-17.25,5.96v-5.96h0Z" style="fill: #3eadb6; stroke-width: 0px;"/>
  <polygon points="132.32 17.18 114.5 17.18 114.5 24.14 124.91 24.14 124.91 41.58 114.5 41.58 114.5 48.54 142.73 48.54 142.73 41.58 132.32 41.58 132.32 17.18 132.32 17.18" style="fill: #3eadb6; stroke-width: 0px;"/>
  <path d="M290.27,16.49c-9.03,0-15.81,6.71-15.81,16.5s6.71,16.5,16.06,16.5c4.7,0,9.41-1.76,12.04-3.64l-2.45-6.15c-2.89,1.69-5.83,2.76-8.97,2.76-4.2,0-7.97-1.95-8.97-6.65h23.9v-1.51c0-11.42-6.71-17.81-15.81-17.81h0ZM282.12,29.22c.63-3.7,4.08-6.02,8.16-6.02s7.53,2.32,8.15,6.02h-16.31Z" style="fill: #3eadb6; stroke-width: 0px;"/>
  <path d="M339.83,24.14v-6.96h-16.56V4.63h-7.34v12.55h-7.47v6.96h7.47v10.85c0,3.58,0,14.49,11.6,14.49,4.89,0,9.47-1.94,12.05-3.58l-2.51-6.08c-3.14,2.2-6.46,2.95-8.53,2.95-5.21,0-5.21-4.89-5.21-7.28v-11.35h16.5Z" style="fill: #3eadb6; stroke-width: 0px;"/>
  <path d="M218.63,16.49c-9.03,0-16.5,7.4-16.5,16.5s7.46,16.5,16.5,16.5,16.5-7.4,16.5-16.5-7.4-16.5-16.5-16.5h0ZM218.63,42.39c-5.14,0-9.41-4.27-9.41-9.41s4.27-9.41,9.41-9.41,9.41,4.26,9.41,9.41-4.27,9.41-9.41,9.41h0Z" style="fill: #3eadb6; stroke-width: 0px;"/>
  <g style="clip-path: url(#clippath);">
    <path d="M259.16,17.18c-6.02,0-10.1,3.58-11.73,6.02v-6.02h-7.4v31.37h7.4v-18.32c2.19-3.58,6.27-6.59,9.97-6.59,4.08,0,4.08,3.7,4.08,6.09v18.82h7.46v-18.82c0-3.2,0-12.55-9.79-12.55h0Z" style="fill: #3eadb6; stroke-width: 0px;"/>
    <path d="M31.27,2.02c9.41.05,18.58,4.56,24.34,12.03,5.93,7.68,7.93,18.24,5.14,27.64-2.6,8.72-9.27,16.17-17.74,19.69-7.47,3.11-16.19,3.11-23.67,0-8.43-3.51-15.13-10.91-17.74-19.69C-.62,34.23.09,25.95,3.61,18.99,8.45,9.39,18.43,2.66,29.49,2.06c.59-.03,1.19-.05,1.78-.04h0ZM31.08,6.88c-7.92.04-15.65,3.84-20.51,10.14-4.99,6.47-6.69,15.34-4.33,23.28,2.2,7.38,7.85,13.63,14.95,16.59,7.71,3.21,16.97,2.4,24.03-2.16,7.29-4.71,11.98-13.19,11.92-22.02-.05-8.51-4.57-16.88-11.79-21.6-4.14-2.71-9.05-4.18-14.03-4.22-.08,0-.17,0-.25,0h0ZM30.29,48.13h-9.27l-9.13-26.36h10.94l4.77,15.78c1.12,3.94,2.02,7.64,2.68,10.58h0ZM50.7,21.76l-9.13,26.36h-9.27c.66-2.94,1.57-6.65,2.68-10.58l4.77-15.78h10.94Z" style="fill: #3eadb6; stroke-width: 0px;"/>
  </g>
</svg>