<?xml version="1.0" encoding="UTF-8"?>
<svg id="Ebene_1" data-name="Ebene 1" xmlns="http://www.w3.org/2000/svg" xmlns:xlink="http://www.w3.org/1999/xlink" viewBox="0 0 340.2 65.2">
  <defs>
    <clipPath id="clippath">
      <rect width="340.2" height="65.2" fill="none" stroke-width="0"/>
    </clipPath>
  </defs>
  <polygon points="101.2 17.2 93.6 39.3 86 17.2 78.8 17.2 89 48.5 98.3 48.5 108.5 17.2 101.2 17.2 101.2 17.2" fill="#fff" stroke-width="0"/>
  <path d="M128.6,10.8c2.5,0,4.6-1.9,4.6-4.6s-2.1-4.6-4.6-4.6-4.6,2.1-4.6,4.6,2.1,4.6,4.6,4.6h0Z" fill="#fff" stroke-width="0"/>
  <path d="M153.8,4.6h-7.3v12.6h-7.5v7h7.5v10.8c0,3.6,0,14.5,11.6,14.5s9.5-1.9,12-3.6l-2.5-6.1c-3.1,2.2-6.5,3-8.5,3-5.2,0-5.2-4.9-5.2-7.3v-11.4h16.5v-7h-16.6V4.6h0Z" fill="#fff" stroke-width="0"/>
  <path d="M183.3,17.2h-7.4v31.4h7.4v-18c2-1.8,7.8-6,17.2-6.4v-7c-10.5.4-17.2,5.9-17.2,6v-6h0Z" fill="#fff" stroke-width="0"/>
  <polygon points="132.3 17.2 114.5 17.2 114.5 24.1 124.9 24.1 124.9 41.6 114.5 41.6 114.5 48.5 142.7 48.5 142.7 41.6 132.3 41.6 132.3 17.2 132.3 17.2" fill="#fff" stroke-width="0"/>
  <path d="M290.3,16.5c-9,0-15.8,6.7-15.8,16.5s6.7,16.5,16.1,16.5,9.4-1.8,12-3.6l-2.5-6.2c-2.9,1.7-5.8,2.8-9,2.8s-8-2-9-6.7h23.9v-1.5c0-11.4-6.7-17.8-15.8-17.8h.1ZM282.1,29.2c.6-3.7,4.1-6,8.2-6s7.5,2.3,8.1,6h-16.3Z" fill="#fff" stroke-width="0"/>
  <path d="M339.8,24.1v-7h-16.6V4.6h-7.3v12.6h-7.5v7h7.5v10.8c0,3.6,0,14.5,11.6,14.5s9.5-1.9,12-3.6l-2.5-6.1c-3.1,2.2-6.5,3-8.5,3-5.2,0-5.2-4.9-5.2-7.3v-11.4s16.5,0,16.5,0Z" fill="#fff" stroke-width="0"/>
  <path d="M218.6,16.5c-9,0-16.5,7.4-16.5,16.5s7.5,16.5,16.5,16.5,16.5-7.4,16.5-16.5-7.4-16.5-16.5-16.5h0ZM218.6,42.4c-5.1,0-9.4-4.3-9.4-9.4s4.3-9.4,9.4-9.4,9.4,4.3,9.4,9.4-4.3,9.4-9.4,9.4h0Z" fill="#fff" stroke-width="0"/>
  <g clip-path="url(#clippath)">
    <g>
      <path d="M259.2,17.2c-6,0-10.1,3.6-11.7,6v-6h-7.4v31.4h7.4v-18.3c2.2-3.6,6.3-6.6,10-6.6s4.1,3.7,4.1,6.1v18.8h7.5v-18.8c0-3.2,0-12.5-9.8-12.5h0l-.1-.1Z" fill="#fff" stroke-width="0"/>
      <path d="M31.3,2c9.4,0,18.6,4.6,24.3,12,5.9,7.7,7.9,18.2,5.1,27.6-2.6,8.7-9.3,16.2-17.7,19.7-7.5,3.1-16.2,3.1-23.7,0-8.4-3.5-15.1-10.9-17.7-19.7-2.2-7.4-1.6-15.6,2-22.6C8.4,9.4,18.4,2.7,29.5,2.1h1.8v-.1ZM31.1,6.9c-7.9,0-15.6,3.8-20.5,10.1-5,6.5-6.7,15.3-4.3,23.3,2.2,7.4,7.9,13.6,14.9,16.6,7.7,3.2,17,2.4,24-2.2,7.3-4.7,12-13.2,11.9-22,0-8.5-4.6-16.9-11.8-21.6-4.1-2.7-9-4.2-14-4.2h-.2,0ZM30.3,48.1h-9.3l-9.1-26.4h10.9l4.8,15.8c1.1,3.9,2,7.6,2.7,10.6h0ZM50.7,21.8l-9.1,26.4h-9.3c.7-2.9,1.6-6.7,2.7-10.6l4.8-15.8h11-.1Z" fill="#fff" stroke-width="0"/>
    </g>
  </g>
</svg>